<svg width="20" height="20" viewBox="0 0 20 20" fill="none" xmlns="http://www.w3.org/2000/svg">
<path d="M12.7337 16.6667C12.7337 18.1836 11.504 19.4133 9.98709 19.4133C8.47006 19.4133 7.24036 18.1836 7.24036 16.6667C7.24036 15.1497 8.47006 13.92 9.98709 13.92C11.504 13.92 12.7337 15.1497 12.7337 16.6667Z" fill="#FFA000"/>
<path d="M17.8029 14.9266C16.5428 13.8617 15.8203 12.3059 15.8203 10.6567V8.33328C15.8203 5.11673 13.2028 2.5 9.987 2.5C6.77106 2.5 4.15356 5.11673 4.15356 8.33328V10.6567C4.15356 12.3059 3.43106 13.8625 2.16367 14.9342C1.83942 15.2109 1.65356 15.6149 1.65356 16.0417C1.65356 16.8459 2.30771 17.5 3.112 17.5H16.862C17.6661 17.5 18.3203 16.8459 18.3203 16.0417C18.3203 15.6149 18.1344 15.2109 17.8029 14.9266Z" fill="#FFC107"/>
<path d="M18.5286 8.95828C18.1836 8.95828 17.9036 8.67828 17.9036 8.33328C17.9036 5.93994 16.972 3.6908 15.2803 1.99829C15.0361 1.75415 15.0361 1.35834 15.2803 1.1142C15.5244 0.870056 15.9202 0.870056 16.1645 1.1142C18.092 3.04245 19.1536 5.60669 19.1536 8.33328C19.1536 8.67828 18.8736 8.95828 18.5286 8.95828Z" fill="#2F2F2F"/>
<path d="M1.44531 8.95825C1.10031 8.95825 0.820312 8.67825 0.820312 8.33325C0.820312 5.60666 1.88202 3.04242 3.81027 1.11493C4.05441 0.870789 4.45038 0.870789 4.69452 1.11493C4.93866 1.35907 4.93866 1.75504 4.69452 1.99918C3.00201 3.69077 2.07031 5.93991 2.07031 8.33325C2.07031 8.67825 1.79031 8.95825 1.44531 8.95825Z" fill="#2F2F2F"/>
<path d="M9.98706 20C8.26373 20 6.86206 18.5983 6.86206 16.875C6.86206 16.53 7.14206 16.25 7.48706 16.25C7.83206 16.25 8.11206 16.53 8.11206 16.875C8.11206 17.9092 8.95282 18.75 9.98706 18.75C11.0211 18.75 11.8621 17.9092 11.8621 16.875C11.8621 16.53 12.1421 16.25 12.4871 16.25C12.8321 16.25 13.1121 16.53 13.1121 16.875C13.1121 18.5983 11.7104 20 9.98706 20Z" fill="#2F2F2F"/>
<path d="M16.862 17.5H3.112C2.30771 17.5 1.65356 16.8459 1.65356 16.0417C1.65356 15.6149 1.83942 15.2109 2.16367 14.9333C3.43106 13.8625 4.15356 12.3059 4.15356 10.6567V8.33328C4.15356 5.11673 6.77029 2.5 9.987 2.5C13.2036 2.5 15.8203 5.11673 15.8203 8.33328V10.6567C15.8203 12.3059 16.5428 13.8625 17.8019 14.9275C18.1344 15.2109 18.3203 15.6149 18.3203 16.0417C18.3203 16.8459 17.6661 17.5 16.862 17.5ZM9.987 3.75C7.45938 3.75 5.40356 5.80582 5.40356 8.33328V10.6567C5.40356 12.6741 4.51947 14.5792 2.97864 15.8817C2.94949 15.9067 2.90356 15.9584 2.90356 16.0417C2.90356 16.1549 2.99863 16.25 3.112 16.25H16.862C16.9752 16.25 17.0703 16.1549 17.0703 16.0417C17.0703 15.9584 17.0245 15.9067 16.9969 15.8833C15.4544 14.5792 14.5703 12.6741 14.5703 10.6567V8.33328C14.5703 5.80582 12.5145 3.75 9.987 3.75Z" fill="#2F2F2F"/>
<path d="M9.98706 3.75C9.64206 3.75 9.36206 3.47 9.36206 3.125V0.625C9.36206 0.279999 9.64206 0 9.98706 0C10.3321 0 10.6121 0.279999 10.6121 0.625V3.125C10.6121 3.47 10.3321 3.75 9.98706 3.75Z" fill="#2F2F2F"/>
</svg>
