<svg width="40" height="40" viewBox="0 0 40 40" fill="none" xmlns="http://www.w3.org/2000/svg">
<g clip-path="url(#clip0_7:611)">
<path d="M36.3216 16.0183L33.45 15.6533C33.2133 14.925 32.9216 14.2217 32.58 13.5533L34.3533 11.27C35.0716 10.345 34.9866 9.04166 34.1683 8.24499L31.7633 5.83999C30.96 5.01166 29.6566 4.92832 28.73 5.64666L26.4483 7.41999C25.78 7.07832 25.0783 6.78832 24.3483 6.55166L23.9833 3.68499C23.8433 2.53332 22.8683 1.66666 21.7116 1.66666H18.2883C17.1316 1.66666 16.155 2.53332 16.0183 3.67832L15.6533 6.54999C14.9233 6.78666 14.2216 7.07832 13.5533 7.41832L11.27 5.64499C10.3466 4.92832 9.04163 5.01166 8.24496 5.82999L5.83996 8.23832C5.01163 9.04166 4.92829 10.345 5.64663 11.2717L7.41996 13.555C7.07829 14.2233 6.78663 14.9267 6.54996 15.655L3.68329 16.0183C2.53329 16.1567 1.66663 17.1317 1.66663 18.2883V21.7117C1.66663 22.8683 2.53329 23.845 3.67829 23.9817L6.54996 24.3467C6.78663 25.075 7.07829 25.7783 7.41996 26.4467L5.64663 28.73C4.92829 29.655 5.01329 30.9583 5.83163 31.755L8.23829 34.1617C9.04163 34.9883 10.345 35.0717 11.27 34.355L13.5533 32.5817C14.2216 32.9233 14.925 33.215 15.6533 33.4517L16.0183 36.3183C16.1566 37.4667 17.1316 38.3333 18.2883 38.3333H21.7116C22.8683 38.3333 23.845 37.4667 23.9816 36.3217L24.3466 33.45C25.075 33.2133 25.7783 32.9217 26.4466 32.58L28.73 34.3533C29.655 35.0717 30.9583 34.9867 31.755 34.1683L34.16 31.7633C34.9883 30.96 35.0716 29.6567 34.3533 28.73L32.58 26.4467C32.9216 25.7783 33.2133 25.075 33.45 24.3467L36.3166 23.9817C37.4666 23.8433 38.3333 22.8667 38.3333 21.7117V18.2883C38.3333 17.1317 37.4666 16.1567 36.3216 16.0183Z" fill="#90A4AE"/>
<path d="M20 28.3333C24.6023 28.3333 28.3333 24.6024 28.3333 20C28.3333 15.3976 24.6023 11.6667 20 11.6667C15.3976 11.6667 11.6666 15.3976 11.6666 20C11.6666 24.6024 15.3976 28.3333 20 28.3333Z" fill="white"/>
<path d="M21.45 40H18.55C17.0733 40 15.8517 38.9383 15.645 37.4733L15.2167 34.215C14.5633 33.9983 13.9317 33.7367 13.3217 33.4333L10.7283 35.425C9.57667 36.3183 7.92167 36.2083 6.88167 35.1667L4.83333 33.1167C3.79333 32.0783 3.68333 30.4233 4.57833 29.2683L6.56833 26.6783C6.26333 26.0683 6.00333 25.435 5.78667 24.7833L2.53833 24.3567C1.06167 24.1483 0 22.9267 0 21.45V18.55C0 17.0733 1.06167 15.8517 2.52667 15.645L5.785 15.2167C6.00167 14.5633 6.26333 13.9317 6.56667 13.3217L4.575 10.7283C3.68333 9.57667 3.79333 7.92167 4.83333 6.88167L6.88333 4.83333C7.92167 3.79333 9.57667 3.68167 10.7333 4.57833L13.3217 6.56667C13.93 6.26333 14.5633 6.00167 15.2167 5.785L15.6433 2.53667C15.8517 1.06167 17.0733 0 18.55 0H21.45C22.9267 0 24.1483 1.06167 24.355 2.52667L24.7833 5.78667C25.4367 6.00333 26.0683 6.265 26.6783 6.56833L29.2717 4.57667C30.4233 3.685 32.08 3.79333 33.1183 4.835L35.1667 6.88333C36.2067 7.92167 36.3167 9.57667 35.4217 10.7317L33.4333 13.3217C33.7383 13.9317 33.9983 14.565 34.215 15.2167L37.4633 15.6433C38.9383 15.8517 40 17.0733 40 18.55V21.45C40 22.9267 38.9383 24.1483 37.4733 24.355L34.2133 24.7833C33.9967 25.4367 33.735 26.0683 33.4317 26.6783L35.4233 29.2717C36.315 30.4233 36.205 32.0783 35.165 33.1183L33.1167 35.1667C32.0767 36.205 30.4233 36.3133 29.2683 35.4217L26.6783 33.4317C26.0683 33.7367 25.435 33.9967 24.7833 34.2133L24.3567 37.4617C24.1483 38.9383 22.9267 40 21.45 40ZM13.2 30.7C13.415 30.7 13.63 30.755 13.825 30.8667C14.71 31.3767 15.6683 31.7717 16.675 32.0433C17.1617 32.175 17.5233 32.5867 17.59 33.0867L18.1233 37.1367C18.1533 37.345 18.33 37.5 18.55 37.5H21.45C21.6717 37.5 21.8483 37.3467 21.8783 37.125L22.41 33.0867C22.4767 32.585 22.8367 32.1733 23.325 32.0433C24.3317 31.7717 25.2917 31.3767 26.175 30.8667C26.6133 30.615 27.1583 30.65 27.5617 30.9583L30.795 33.4417C30.9683 33.575 31.1917 33.5567 31.3483 33.4L33.3983 31.35C33.555 31.1933 33.5733 30.9667 33.4433 30.7983L30.9567 27.5617C30.6483 27.16 30.6117 26.6133 30.865 26.175C31.375 25.29 31.77 24.3317 32.0417 23.325C32.1733 22.8383 32.585 22.4767 33.085 22.41L37.135 21.8767C37.3433 21.8467 37.4983 21.67 37.4983 21.45V18.55C37.4983 18.3283 37.345 18.1517 37.1233 18.1217L33.085 17.59C32.5833 17.5233 32.1717 17.1633 32.0417 16.675C31.77 15.6683 31.375 14.7083 30.865 13.825C30.6133 13.3867 30.65 12.84 30.9567 12.4383L33.44 9.205C33.5733 9.03333 33.5533 8.80833 33.3983 8.65167L31.3483 6.60167C31.19 6.445 30.965 6.425 30.7983 6.555L27.5617 9.04167C27.1583 9.35 26.6133 9.38333 26.175 9.13333C25.29 8.62333 24.3317 8.22833 23.325 7.95667C22.8383 7.825 22.4767 7.41333 22.41 6.91333L21.8767 2.86333C21.8483 2.65333 21.6717 2.5 21.45 2.5H18.55C18.3283 2.5 18.1517 2.65333 18.1217 2.875L17.59 6.91333C17.5233 7.415 17.1633 7.82667 16.675 7.95667C15.6683 8.22833 14.7083 8.62333 13.825 9.13333C13.385 9.38333 12.8417 9.34833 12.4383 9.04167L9.205 6.55833C9.035 6.425 8.81 6.44333 8.65167 6.6L6.6 8.65C6.44333 8.80833 6.425 9.03333 6.555 9.20167L9.04167 12.4383C9.34833 12.84 9.385 13.3867 9.13333 13.8233C8.62333 14.7083 8.22833 15.6667 7.95667 16.6733C7.825 17.16 7.41333 17.5217 6.91333 17.5883L2.86333 18.1217C2.65333 18.1517 2.5 18.3283 2.5 18.55V21.45C2.5 21.6717 2.65333 21.8483 2.875 21.8783L6.91333 22.41C7.415 22.4767 7.82667 22.8367 7.95667 23.325C8.22833 24.3317 8.62333 25.2917 9.13333 26.175C9.385 26.6133 9.34833 27.16 9.04167 27.5617L6.55833 30.795C6.425 30.9667 6.445 31.1917 6.6 31.3483L8.65 33.3983C8.805 33.555 9.03167 33.5733 9.20167 33.4433L12.4383 30.9567C12.6617 30.7867 12.93 30.7 13.2 30.7Z" fill="black"/>
<path d="M20 28.3333C15.405 28.3333 11.6666 24.595 11.6666 20C11.6666 15.405 15.405 11.6667 20 11.6667C24.595 11.6667 28.3333 15.405 28.3333 20C28.3333 24.595 24.595 28.3333 20 28.3333ZM20 14.1667C16.7833 14.1667 14.1666 16.7833 14.1666 20C14.1666 23.2167 16.7833 25.8333 20 25.8333C23.2166 25.8333 25.8333 23.2167 25.8333 20C25.8333 16.7833 23.2166 14.1667 20 14.1667Z" fill="black"/>
</g>
<defs>
<clipPath id="clip0_7:611">
<rect width="40" height="40" fill="white"/>
</clipPath>
</defs>
</svg>
